<svg id="Icon" viewBox="0 0 24 24" xmlns="http://www.w3.org/2000/svg"><path d="m11.75 21.75h-6.5v-4.75c0-.965.785-1.75 1.75-1.75h3c.965 0 1.75.785 1.75 1.75zm-5-1.5h3.5v-3.25c0-.138-.112-.25-.25-.25h-3c-.138 0-.25.112-.25.25z" fill="#549bff"/><path d="m20.084 9.791-5.334-2.286v-3.196c0-.55-.251-1.057-.688-1.391-.436-.333-.99-.442-1.521-.297l-8.264 2.253c-1.193.325-2.026 1.417-2.026 2.653v11.472c0 1.517 1.233 2.75 2.75 2.75h14c1.517 0 2.75-1.233 2.75-2.75v-6.681c0-1.101-.654-2.093-1.666-2.528zm-6.834 10.459h-8.25c-.689 0-1.25-.561-1.25-1.25v-11.472c0-.562.379-1.058.921-1.206l8.265-2.253c.023-.007.046-.009.066-.009.069 0 .122.03.149.051.037.028.099.091.099.199v15.941zm7-1.25c0 .689-.561 1.25-1.25 1.25h-4.25v-11.113l4.742 2.033c.46.197.758.648.758 1.149zm-9.5-10c0 .414-.336.75-.75.75h-3c-.414 0-.75-.336-.75-.75s.336-.75.75-.75h3c.414 0 .75.336.75.75zm0 3c0 .414-.336.75-.75.75h-3c-.414 0-.75-.336-.75-.75s.336-.75.75-.75h3c.414 0 .75.336.75.75zm8 5c0 .414-.336.75-.75.75h-1c-.414 0-.75-.336-.75-.75s.336-.75.75-.75h1c.414 0 .75.336.75.75zm0-3c0 .414-.336.75-.75.75h-1c-.414 0-.75-.336-.75-.75s.336-.75.75-.75h1c.414 0 .75.336.75.75z" fill="#112d55"/></svg>